<?xml version="1.0" encoding="utf-8"?>
<!-- Generator: Adobe Illustrator 26.0.0, SVG Export Plug-In . SVG Version: 6.00 Build 0)  -->
<svg version="1.1" id="Layer_1" xmlns="http://www.w3.org/2000/svg" xmlns:xlink="http://www.w3.org/1999/xlink" x="0px" y="0px"
	 viewBox="0 0 500 500" style="enable-background:new 0 0 500 500;" xml:space="preserve">
<style type="text/css">
	.st0{clip-path:url(#SVGID_00000114763947722130980310000008717701937275822483_);}
	.st1{clip-path:url(#SVGID_00000053535206539884041610000007565116031671777959_);}
	.st2{fill:url(#SVGID_00000038387757447725962540000007514798180208817800_);}
	.st3{clip-path:url(#SVGID_00000163073427697018419290000005123614628555841681_);}
	.st4{clip-path:url(#SVGID_00000098214715929948399010000001543282964267782051_);}
	.st5{fill:url(#SVGID_00000090984279351147677900000008556048680376550573_);}
	.st6{fill:#E30631;}
</style>
<g>
	<defs>
		<rect id="SVGID_1_" x="240.4" y="79.3" width="74.6" height="116.2"/>
	</defs>
	<clipPath id="SVGID_00000130644498470299034840000007307823734249155775_">
		<use xlink:href="#SVGID_1_"  style="overflow:visible;"/>
	</clipPath>
	<g style="clip-path:url(#SVGID_00000130644498470299034840000007307823734249155775_);">
		<g>
			<defs>
				<path id="SVGID_00000041274898312388565170000008338196206881498537_" d="M251.5,148.5c-7.5-13.2-16.2-35.2,0-55.3
					c16.7-20.7,52.4-12.5,60.4,8.7c9.8,26.7-11.6,69.5-19.3,82.9c-9.4,16.9-14,8.9-17.4,3.1C271.7,182,259,161.5,251.5,148.5z
					 M277,134.7c8,0.9,19.8-5.1,18.5-19.8c-1.3-14.7-17.3-14.5-17.3-14.5C257.3,102,257,132.5,277,134.7z"/>
			</defs>
			<clipPath id="SVGID_00000137132046023031397370000008311481184269251747_">
				<use xlink:href="#SVGID_00000041274898312388565170000008338196206881498537_"  style="overflow:visible;"/>
			</clipPath>
			<g style="clip-path:url(#SVGID_00000137132046023031397370000008311481184269251747_);">
				
					<linearGradient id="SVGID_00000138559817662882316350000006446507809727024810_" gradientUnits="userSpaceOnUse" x1="-15.5999" y1="870.1485" x2="70.9831" y2="975.7292" gradientTransform="matrix(1.1053 0 0 1.1025 247.9107 -877.9446)">
					<stop  offset="0" style="stop-color:#E4486B"/>
					<stop  offset="7.812500e-03" style="stop-color:#E4486B"/>
					<stop  offset="1.562500e-02" style="stop-color:#E4486A"/>
					<stop  offset="2.343750e-02" style="stop-color:#E4476A"/>
					<stop  offset="3.125000e-02" style="stop-color:#E4476A"/>
					<stop  offset="3.906250e-02" style="stop-color:#E44669"/>
					<stop  offset="4.687500e-02" style="stop-color:#E44669"/>
					<stop  offset="5.468750e-02" style="stop-color:#E44568"/>
					<stop  offset="6.250000e-02" style="stop-color:#E44568"/>
					<stop  offset="7.031250e-02" style="stop-color:#E44467"/>
					<stop  offset="7.812500e-02" style="stop-color:#E44467"/>
					<stop  offset="8.593750e-02" style="stop-color:#E44366"/>
					<stop  offset="9.375000e-02" style="stop-color:#E44366"/>
					<stop  offset="0.1016" style="stop-color:#E44265"/>
					<stop  offset="0.1094" style="stop-color:#E44265"/>
					<stop  offset="0.1172" style="stop-color:#E44165"/>
					<stop  offset="0.125" style="stop-color:#E44064"/>
					<stop  offset="0.1328" style="stop-color:#E44064"/>
					<stop  offset="0.1406" style="stop-color:#E43F63"/>
					<stop  offset="0.1484" style="stop-color:#E43F63"/>
					<stop  offset="0.1562" style="stop-color:#E43E62"/>
					<stop  offset="0.1641" style="stop-color:#E43E62"/>
					<stop  offset="0.1719" style="stop-color:#E43D61"/>
					<stop  offset="0.1797" style="stop-color:#E43D61"/>
					<stop  offset="0.1875" style="stop-color:#E43C61"/>
					<stop  offset="0.1953" style="stop-color:#E43C60"/>
					<stop  offset="0.2031" style="stop-color:#E43B60"/>
					<stop  offset="0.2109" style="stop-color:#E43B5F"/>
					<stop  offset="0.2188" style="stop-color:#E43A5F"/>
					<stop  offset="0.2266" style="stop-color:#E43A5E"/>
					<stop  offset="0.2344" style="stop-color:#E4395E"/>
					<stop  offset="0.2422" style="stop-color:#E4395D"/>
					<stop  offset="0.25" style="stop-color:#E4385D"/>
					<stop  offset="0.2578" style="stop-color:#E4385C"/>
					<stop  offset="0.2656" style="stop-color:#E4375C"/>
					<stop  offset="0.2734" style="stop-color:#E4375C"/>
					<stop  offset="0.2812" style="stop-color:#E4365B"/>
					<stop  offset="0.2891" style="stop-color:#E4365B"/>
					<stop  offset="0.2969" style="stop-color:#E4355A"/>
					<stop  offset="0.3047" style="stop-color:#E4355A"/>
					<stop  offset="0.3125" style="stop-color:#E43459"/>
					<stop  offset="0.3203" style="stop-color:#E43459"/>
					<stop  offset="0.3281" style="stop-color:#E43358"/>
					<stop  offset="0.3359" style="stop-color:#E43358"/>
					<stop  offset="0.3438" style="stop-color:#E43258"/>
					<stop  offset="0.3516" style="stop-color:#E43257"/>
					<stop  offset="0.3594" style="stop-color:#E43157"/>
					<stop  offset="0.3628" style="stop-color:#E33156"/>
					<stop  offset="0.3672" style="stop-color:#E33056"/>
					<stop  offset="0.375" style="stop-color:#E33056"/>
					<stop  offset="0.3828" style="stop-color:#E33055"/>
					<stop  offset="0.3906" style="stop-color:#E32F55"/>
					<stop  offset="0.3984" style="stop-color:#E32F54"/>
					<stop  offset="0.4062" style="stop-color:#E32E54"/>
					<stop  offset="0.4141" style="stop-color:#E32D53"/>
					<stop  offset="0.4219" style="stop-color:#E32D53"/>
					<stop  offset="0.4297" style="stop-color:#E32C53"/>
					<stop  offset="0.4375" style="stop-color:#E32C52"/>
					<stop  offset="0.4453" style="stop-color:#E32B52"/>
					<stop  offset="0.4531" style="stop-color:#E32B51"/>
					<stop  offset="0.4609" style="stop-color:#E32A51"/>
					<stop  offset="0.4688" style="stop-color:#E32A50"/>
					<stop  offset="0.4766" style="stop-color:#E32950"/>
					<stop  offset="0.4844" style="stop-color:#E3294F"/>
					<stop  offset="0.4922" style="stop-color:#E3284F"/>
					<stop  offset="0.5" style="stop-color:#E3284F"/>
					<stop  offset="0.5078" style="stop-color:#E3274E"/>
					<stop  offset="0.5156" style="stop-color:#E3274E"/>
					<stop  offset="0.5234" style="stop-color:#E3264D"/>
					<stop  offset="0.5312" style="stop-color:#E3264D"/>
					<stop  offset="0.5391" style="stop-color:#E3254C"/>
					<stop  offset="0.5469" style="stop-color:#E3254C"/>
					<stop  offset="0.5547" style="stop-color:#E3244B"/>
					<stop  offset="0.5625" style="stop-color:#E3244B"/>
					<stop  offset="0.5703" style="stop-color:#E3234A"/>
					<stop  offset="0.5781" style="stop-color:#E3234A"/>
					<stop  offset="0.5859" style="stop-color:#E3224A"/>
					<stop  offset="0.5938" style="stop-color:#E32249"/>
					<stop  offset="0.6016" style="stop-color:#E32149"/>
					<stop  offset="0.6094" style="stop-color:#E32148"/>
					<stop  offset="0.6172" style="stop-color:#E32048"/>
					<stop  offset="0.625" style="stop-color:#E32047"/>
					<stop  offset="0.6328" style="stop-color:#E31F47"/>
					<stop  offset="0.6372" style="stop-color:#E31F46"/>
					<stop  offset="0.6406" style="stop-color:#E31E46"/>
					<stop  offset="0.6484" style="stop-color:#E31E46"/>
					<stop  offset="0.6562" style="stop-color:#E31E46"/>
					<stop  offset="0.6641" style="stop-color:#E31D45"/>
					<stop  offset="0.6719" style="stop-color:#E31D45"/>
					<stop  offset="0.6797" style="stop-color:#E31C44"/>
					<stop  offset="0.6875" style="stop-color:#E31C44"/>
					<stop  offset="0.6953" style="stop-color:#E31B43"/>
					<stop  offset="0.7031" style="stop-color:#E31A43"/>
					<stop  offset="0.7109" style="stop-color:#E31A42"/>
					<stop  offset="0.7188" style="stop-color:#E31942"/>
					<stop  offset="0.7266" style="stop-color:#E31941"/>
					<stop  offset="0.7344" style="stop-color:#E31841"/>
					<stop  offset="0.7422" style="stop-color:#E31841"/>
					<stop  offset="0.75" style="stop-color:#E31740"/>
					<stop  offset="0.7578" style="stop-color:#E31740"/>
					<stop  offset="0.7656" style="stop-color:#E3163F"/>
					<stop  offset="0.7734" style="stop-color:#E3163F"/>
					<stop  offset="0.7812" style="stop-color:#E3153E"/>
					<stop  offset="0.7891" style="stop-color:#E3153E"/>
					<stop  offset="0.7969" style="stop-color:#E3143D"/>
					<stop  offset="0.8047" style="stop-color:#E3143D"/>
					<stop  offset="0.8125" style="stop-color:#E3133D"/>
					<stop  offset="0.8203" style="stop-color:#E3133C"/>
					<stop  offset="0.8281" style="stop-color:#E3123C"/>
					<stop  offset="0.8359" style="stop-color:#E3123B"/>
					<stop  offset="0.8438" style="stop-color:#E3113B"/>
					<stop  offset="0.8516" style="stop-color:#E3113A"/>
					<stop  offset="0.8594" style="stop-color:#E3103A"/>
					<stop  offset="0.8672" style="stop-color:#E31039"/>
					<stop  offset="0.875" style="stop-color:#E30F39"/>
					<stop  offset="0.8828" style="stop-color:#E30F38"/>
					<stop  offset="0.8906" style="stop-color:#E30E38"/>
					<stop  offset="0.8984" style="stop-color:#E30E38"/>
					<stop  offset="0.9062" style="stop-color:#E30D37"/>
					<stop  offset="0.9141" style="stop-color:#E30D37"/>
					<stop  offset="0.9219" style="stop-color:#E30C36"/>
					<stop  offset="0.9297" style="stop-color:#E30C36"/>
					<stop  offset="0.9375" style="stop-color:#E30B35"/>
					<stop  offset="0.9453" style="stop-color:#E30B35"/>
					<stop  offset="0.9531" style="stop-color:#E30A34"/>
					<stop  offset="0.9609" style="stop-color:#E30A34"/>
					<stop  offset="0.9688" style="stop-color:#E30934"/>
					<stop  offset="0.9766" style="stop-color:#E30933"/>
					<stop  offset="0.9844" style="stop-color:#E30833"/>
					<stop  offset="0.9922" style="stop-color:#E30732"/>
					<stop  offset="1" style="stop-color:#E30732"/>
				</linearGradient>
				<path style="fill:url(#SVGID_00000138559817662882316350000006446507809727024810_);" d="M235.3,201.6v-124h86.3v124H235.3z"/>
			</g>
		</g>
	</g>
</g>
<g>
	<defs>
		<rect id="SVGID_00000007410176363947783360000001456159328271277981_" x="130.8" y="134.1" width="232.5" height="195.1"/>
	</defs>
	<clipPath id="SVGID_00000174586149251425962650000008183410904095319975_">
		<use xlink:href="#SVGID_00000007410176363947783360000001456159328271277981_"  style="overflow:visible;"/>
	</clipPath>
	<g style="clip-path:url(#SVGID_00000174586149251425962650000008183410904095319975_);">
		<g>
			<defs>
				<path id="SVGID_00000139252225840179628150000011370667038069082039_" d="M335,156.3c-7.3-6.5-13.3-0.9-14.4,3.3
					c0,0-7.8,28.6-23.4,47.9c-11.1,13.6-16,9.1-22.4,3.8c-6.4-5.3-33.1-37.3-47.8-54.4c-17.1-19.8-32-25.6-44.7-21
					c-12.2,4.4-42.9,35.2-48.2,74.3c-6.2,44.1,10.5,59.8,20.4,62.4c7.3,1.8,16,1.3,18.9,4.4c2.2,2.5,4,5.3,5.6,8.2
					c1.8,3.1-0.2,4.9-2.7,5.3c-3.6,0.4-7.5,0.4-11.1-0.2c-3.8-0.4-3.1,3.4-0.9,5.8c3.6,4,34.2,33,84.5,31.6
					c75.4-2.2,106-55.7,111.8-88.8C367.1,200.3,349.9,169.7,335,156.3z M224.8,274.3c-6.7,4-14,7.1-21.5,9.1c-2.5,0.5-5.1,0.5-8-3.3
					c-2.9-3.8-8-11.6-1.3-13.1s19.6-8.3,22.9-10.3c3.3-2,5.6-1.1,7.8,1.5c2.2,2.5,4.9,4.9,5.4,6.9
					C230.8,267,231.2,270.1,224.8,274.3z M271.9,241.1c-5.6,5.6-11.8,10.3-18.7,14c-2.4,1.1-4.7,1.8-8.5-1.3
					c-3.8-3.1-10.2-8.7-4.2-12.3c7.1-4.5,13.8-9.8,19.8-15.6c2.7-2.7,5.1-2.4,7.8-0.5c2.5,1.6,4.9,3.5,6.9,5.4
					C276.4,232.8,277.2,235.5,271.9,241.1z"/>
			</defs>
			<clipPath id="SVGID_00000176723078456279388220000007223169877509037493_">
				<use xlink:href="#SVGID_00000139252225840179628150000011370667038069082039_"  style="overflow:visible;"/>
			</clipPath>
			<g style="clip-path:url(#SVGID_00000176723078456279388220000007223169877509037493_);">
				
					<radialGradient id="SVGID_00000080909699977143126750000001090787189327882648_" cx="-115.0175" cy="943.9415" r="118.794" fx="-187.6434" fy="903.0726" gradientTransform="matrix(1.3215 1.345040e-02 -1.348467e-02 1.345 407.5088 -1063.0399)" gradientUnits="userSpaceOnUse">
					<stop  offset="0" style="stop-color:#00EEEE"/>
					<stop  offset="7.812500e-03" style="stop-color:#00EDED"/>
					<stop  offset="1.953120e-02" style="stop-color:#00ECED"/>
					<stop  offset="3.125000e-02" style="stop-color:#00EBEC"/>
					<stop  offset="4.296880e-02" style="stop-color:#00EBEC"/>
					<stop  offset="5.468750e-02" style="stop-color:#00EAEB"/>
					<stop  offset="6.640620e-02" style="stop-color:#00E9EB"/>
					<stop  offset="7.812500e-02" style="stop-color:#00E8EA"/>
					<stop  offset="8.984379e-02" style="stop-color:#00E8EA"/>
					<stop  offset="0.1016" style="stop-color:#00E7E9"/>
					<stop  offset="0.1133" style="stop-color:#00E6E9"/>
					<stop  offset="0.125" style="stop-color:#00E5E9"/>
					<stop  offset="0.1367" style="stop-color:#00E5E8"/>
					<stop  offset="0.1484" style="stop-color:#00E4E8"/>
					<stop  offset="0.1602" style="stop-color:#00E3E7"/>
					<stop  offset="0.1719" style="stop-color:#00E2E7"/>
					<stop  offset="0.1836" style="stop-color:#00E2E6"/>
					<stop  offset="0.1953" style="stop-color:#00E1E6"/>
					<stop  offset="0.207" style="stop-color:#00E0E5"/>
					<stop  offset="0.2188" style="stop-color:#00DFE5"/>
					<stop  offset="0.2305" style="stop-color:#00DFE4"/>
					<stop  offset="0.2422" style="stop-color:#00DEE4"/>
					<stop  offset="0.2539" style="stop-color:#00DDE3"/>
					<stop  offset="0.2617" style="stop-color:#00DDE3"/>
					<stop  offset="0.2695" style="stop-color:#00DCE3"/>
					<stop  offset="0.2773" style="stop-color:#00DCE2"/>
					<stop  offset="0.2852" style="stop-color:#00DBE2"/>
					<stop  offset="0.293" style="stop-color:#00DBE2"/>
					<stop  offset="0.3008" style="stop-color:#00DAE1"/>
					<stop  offset="0.3086" style="stop-color:#00DAE1"/>
					<stop  offset="0.3164" style="stop-color:#00D9E1"/>
					<stop  offset="0.3242" style="stop-color:#00D9E0"/>
					<stop  offset="0.332" style="stop-color:#00D8E0"/>
					<stop  offset="0.3398" style="stop-color:#00D8E0"/>
					<stop  offset="0.3477" style="stop-color:#00D7E0"/>
					<stop  offset="0.3555" style="stop-color:#00D7DF"/>
					<stop  offset="0.3633" style="stop-color:#00D7DF"/>
					<stop  offset="0.3711" style="stop-color:#00D6DF"/>
					<stop  offset="0.3789" style="stop-color:#00D5DE"/>
					<stop  offset="0.3945" style="stop-color:#00D5DE"/>
					<stop  offset="0.4102" style="stop-color:#00D4DD"/>
					<stop  offset="0.4258" style="stop-color:#00D3DD"/>
					<stop  offset="0.4414" style="stop-color:#00D2DC"/>
					<stop  offset="0.457" style="stop-color:#00D1DB"/>
					<stop  offset="0.4727" style="stop-color:#00D0DB"/>
					<stop  offset="0.4883" style="stop-color:#00CFDA"/>
					<stop  offset="0.5039" style="stop-color:#00CEDA"/>
					<stop  offset="0.5156" style="stop-color:#00CED9"/>
					<stop  offset="0.5273" style="stop-color:#00CDD9"/>
					<stop  offset="0.5391" style="stop-color:#00CCD8"/>
					<stop  offset="0.5508" style="stop-color:#00CCD8"/>
					<stop  offset="0.5625" style="stop-color:#00CBD7"/>
					<stop  offset="0.5742" style="stop-color:#00CAD7"/>
					<stop  offset="0.5859" style="stop-color:#00CAD7"/>
					<stop  offset="0.5977" style="stop-color:#00C9D6"/>
					<stop  offset="0.6094" style="stop-color:#00C8D6"/>
					<stop  offset="0.6211" style="stop-color:#00C7D5"/>
					<stop  offset="0.6328" style="stop-color:#00C7D5"/>
					<stop  offset="0.6406" style="stop-color:#00C6D5"/>
					<stop  offset="0.6484" style="stop-color:#00C6D4"/>
					<stop  offset="0.6562" style="stop-color:#00C6D4"/>
					<stop  offset="0.6641" style="stop-color:#00C5D4"/>
					<stop  offset="0.6719" style="stop-color:#00C5D3"/>
					<stop  offset="0.6797" style="stop-color:#00C4D3"/>
					<stop  offset="0.6875" style="stop-color:#00C4D3"/>
					<stop  offset="0.6953" style="stop-color:#00C3D2"/>
					<stop  offset="0.7109" style="stop-color:#00C2D2"/>
					<stop  offset="0.7266" style="stop-color:#00C1D1"/>
					<stop  offset="0.7422" style="stop-color:#00C0D1"/>
					<stop  offset="0.7578" style="stop-color:#00C0D0"/>
					<stop  offset="0.7695" style="stop-color:#00BFD0"/>
					<stop  offset="0.7812" style="stop-color:#00BECF"/>
					<stop  offset="0.793" style="stop-color:#00BECF"/>
					<stop  offset="0.8047" style="stop-color:#00BDCE"/>
					<stop  offset="0.8164" style="stop-color:#00BCCE"/>
					<stop  offset="0.8242" style="stop-color:#00BCCE"/>
					<stop  offset="0.832" style="stop-color:#00BBCD"/>
					<stop  offset="0.8398" style="stop-color:#00BBCD"/>
					<stop  offset="0.8477" style="stop-color:#00BACD"/>
					<stop  offset="0.8633" style="stop-color:#00B9CC"/>
					<stop  offset="0.8789" style="stop-color:#00B9CC"/>
					<stop  offset="0.8906" style="stop-color:#00B8CB"/>
					<stop  offset="0.9023" style="stop-color:#00B7CB"/>
					<stop  offset="0.9141" style="stop-color:#00B7CA"/>
					<stop  offset="0.9219" style="stop-color:#00B6CA"/>
					<stop  offset="0.9297" style="stop-color:#00B5CA"/>
					<stop  offset="0.9453" style="stop-color:#00B5C9"/>
					<stop  offset="0.957" style="stop-color:#00B4C9"/>
					<stop  offset="0.9648" style="stop-color:#00B3C8"/>
					<stop  offset="1" style="stop-color:#00B3C8"/>
				</radialGradient>
				<path style="fill:url(#SVGID_00000080909699977143126750000001090787189327882648_);" d="M128.2,328.9l2-200l237.2,2.4l-2,200
					L128.2,328.9z"/>
			</g>
		</g>
	</g>
</g>
<g>
	<g transform="translate(73.692179, 246.115297)">
		<g>
			<path class="st6" d="M-31.4,158.4c2.5,0,5-0.4,7.3-1.1c2.4-0.8,4.1-1.5,5.2-2.2l1.6-1.2l7,14c-0.2,0.2-0.5,0.4-1,0.7
				c-0.4,0.3-1.4,0.8-2.9,1.6c-1.5,0.8-3.1,1.5-4.8,2.1c-1.7,0.6-3.9,1.1-6.7,1.5c-2.7,0.5-5.6,0.7-8.5,0.7
				c-6.7,0-13.1-1.6-19.1-4.9c-6-3.3-10.9-7.9-14.6-13.6c-3.7-5.8-5.5-12.1-5.5-18.8c0-5.1,1.1-10,3.2-14.6c2.2-4.7,5-8.7,8.6-12
				c3.6-3.3,7.8-6,12.6-8c4.8-2,9.7-3,14.7-3c4.7,0,9,0.6,13,1.7c3.9,1.1,6.7,2.2,8.4,3.3l2.5,1.6l-7,14c-0.4-0.4-1-0.8-1.9-1.3
				c-0.8-0.5-2.4-1.2-4.9-2c-2.4-0.8-4.9-1.2-7.5-1.2c-4,0-7.5,0.7-10.7,2c-3.2,1.3-5.7,3-7.5,5.1c-1.8,2.1-3.2,4.4-4.2,6.8
				c-1,2.4-1.4,4.9-1.4,7.4c0,5.5,2.1,10.4,6.2,14.8C-45,156.2-39.1,158.4-31.4,158.4z"/>
		</g>
	</g>
</g>
<g>
	<g transform="translate(103.809182, 246.115297)">
		<g>
			<path class="st6" d="M-29.7,168c-5-4.5-7.5-10.2-7.5-17.1c0-7,2.6-12.7,7.8-17.2c5.2-4.5,11.6-6.7,19.3-6.7
				c7.5,0,13.9,2.3,19.1,6.8c5.2,4.5,7.8,10.2,7.8,17.1c0,6.9-2.5,12.6-7.6,17.1c-5.1,4.5-11.5,6.7-19.2,6.7
				C-18.2,174.6-24.7,172.4-29.7,168z M-17.7,143.2c-2,2-3,4.5-3,7.6c0,3.1,1,5.6,2.9,7.6c1.9,2,4.5,2.9,7.6,2.9c3,0,5.5-1,7.5-3
				c2-2,2.9-4.5,2.9-7.5c0-3.1-1-5.7-3-7.6c-2-2-4.5-3-7.4-3C-13.2,140.2-15.7,141.2-17.7,143.2z"/>
		</g>
	</g>
</g>
<g>
	<g transform="translate(130.246554, 246.115297)">
		<g>
			<path class="st6" d="M17.1,127c2.6,0,5.1,0.3,7.6,0.9c2.5,0.6,4.4,1.2,5.6,1.7l1.9,0.9l-5.1,10.2c-3.5-1.9-6.8-2.8-10-2.8
				c-1.7,0-3,0.2-3.7,0.6c-0.7,0.4-1.1,1.1-1.1,2.1c0,0.2,0,0.5,0.1,0.7c0.1,0.2,0.2,0.4,0.3,0.7c0.2,0.2,0.3,0.4,0.5,0.5
				c0.2,0.1,0.4,0.3,0.8,0.5c0.4,0.2,0.7,0.3,0.9,0.4c0.2,0.1,0.5,0.2,1,0.4c0.5,0.2,0.8,0.3,1.1,0.4c0.2,0.1,0.6,0.2,1.2,0.4
				c0.6,0.2,1,0.3,1.3,0.3c1.8,0.5,3.4,1.1,4.8,1.7c1.3,0.6,2.8,1.5,4.2,2.6c1.5,1.1,2.6,2.5,3.5,4.2c0.8,1.7,1.2,3.6,1.2,5.8
				c0,10.2-7.1,15.4-21.3,15.4c-3.2,0-6.3-0.5-9.2-1.5c-2.9-1-5-2-6.3-3l-1.9-1.6L0.6,158c0.5,0.4,1.1,0.9,1.9,1.5
				c0.8,0.5,2.1,1.3,4.1,2.3s3.7,1.4,5.2,1.4c3.2,0,4.8-1.1,4.8-3.3c0-1-0.4-1.7-1.2-2.3c-0.8-0.6-2.2-1.2-4.2-1.9
				c-1.9-0.7-3.5-1.4-4.6-2c-2.8-1.5-5-3.1-6.7-4.9c-1.6-1.9-2.4-4.3-2.4-7.3c0-4.6,1.8-8.1,5.3-10.7C6.3,128.3,11.1,127,17.1,127z"
				/>
		</g>
	</g>
</g>
<g>
	<g transform="translate(149.9246, 246.115297)">
		<g>
			<path class="st6" d="M21.1,173.3v-45h15.5v4.7h0.2c4-4,8.3-6.1,12.9-6.1c3.3,0,6.4,0.7,9.2,2c2.9,1.4,5,3.4,6.5,6.2
				c4.6-5.5,9.5-8.3,14.9-8.3c4.8,0,8.9,1.4,12.4,4c3.4,2.7,5.2,6.9,5.2,12.6v29.6H82.3v-25.4c0-2.4-0.7-4.4-2-6
				c-1.3-1.6-3.3-2.4-5.9-2.4c-2.3,0-4,0.7-5.2,2.1c-1.2,1.4-1.8,3-2,5v26.8H51.7v-25.4c0-2.4-0.7-4.4-2-6c-1.3-1.6-3.3-2.4-5.9-2.4
				c-2.4,0-4.2,0.7-5.4,2.2c-1.2,1.5-1.8,3.3-1.8,5.3v26.3H21.1z"/>
		</g>
	</g>
</g>
<g>
	<g transform="translate(189.320688, 246.115297)">
		<g>
			<path class="st6" d="M72.3,168c-5-4.5-7.5-10.2-7.5-17.1c0-7,2.6-12.7,7.8-17.2c5.2-4.5,11.6-6.7,19.3-6.7
				c7.5,0,13.9,2.3,19.1,6.8c5.2,4.5,7.8,10.2,7.8,17.1c0,6.9-2.5,12.6-7.6,17.1c-5.1,4.5-11.5,6.7-19.2,6.7
				C83.8,174.6,77.3,172.4,72.3,168z M84.3,143.2c-2,2-3,4.5-3,7.6c0,3.1,1,5.6,2.9,7.6c1.9,2,4.5,2.9,7.6,2.9c3,0,5.5-1,7.5-3
				c2-2,2.9-4.5,2.9-7.5c0-3.1-1-5.7-3-7.6c-2-2-4.5-3-7.4-3C88.8,140.2,86.3,141.2,84.3,143.2z"/>
		</g>
	</g>
</g>
<g>
	<g transform="translate(215.758061, 246.115297)">
		<g>
			<path class="st6" d="M116.1,128.4v44.9H99.6v-72.4h16.5l28.8,44.9h0.2v-44.9h16.5v72.4H145l-28.8-44.9H116.1z"/>
		</g>
	</g>
</g>
<g>
	<g transform="translate(248.794782, 246.115297)">
		<g>
			<path class="st6" d="M142.1,167.7c-4.2-4.6-6.3-10.2-6.3-16.9c0-6.7,2.1-12.3,6.3-16.9c4.2-4.6,9.6-7,16.1-7
				c6,0,10.9,1.9,14.7,5.6v-4.3h15.5v45H173v-5.1h-0.2c-3.9,4.2-8.8,6.4-14.7,6.4C151.6,174.6,146.3,172.3,142.1,167.7z
				 M155.2,143.2c-2,2-3,4.5-3,7.6c0,3.1,1,5.6,2.9,7.6c1.9,2,4.5,2.9,7.6,2.9c3,0,5.5-1,7.5-3c2-2,2.9-4.5,2.9-7.5
				c0-3.1-1-5.7-3-7.6c-2-2-4.5-3-7.4-3C159.8,140.2,157.3,141.2,155.2,143.2z"/>
		</g>
	</g>
</g>
<g>
	<g transform="translate(276.112057, 246.115297)">
		<g>
			<path class="st6" d="M183,128.3l11,24.5l11-24.5h18.4l-24.1,45h-10.5l-24.1-45H183z"/>
		</g>
	</g>
</g>
<g>
	<g transform="translate(188.852955, 278.365323)">
	</g>
</g>
</svg>
